<svg xmlns="http://www.w3.org/2000/svg" width="246.191" height="42.844" viewBox="0 0 246.191 42.844">
  <g id="Group_91" data-name="Group 91" transform="translate(-13934.31 -1809.126)">
    <g id="Group_90" data-name="Group 90" transform="translate(13934.31 1809.126)">
      <g id="Group_89" data-name="Group 89">
        <g id="Group_77" data-name="Group 77">
          <g id="Group_76" data-name="Group 76">
            <g id="Group_75" data-name="Group 75">
              <path id="Path_54" data-name="Path 54" d="M2809.2,316.627h-30.934V285.693H2809.2Z" transform="translate(-2778.267 -285.693)" fill="#2b5752"/>
            </g>
          </g>
        </g>
        <g id="Group_80" data-name="Group 80" transform="translate(0 6.111)">
          <g id="Group_79" data-name="Group 79">
            <g id="Group_78" data-name="Group 78">
              <path id="Path_55" data-name="Path 55" d="M2803.089,351.43h-24.822V326.607h24.822Z" transform="translate(-2778.267 -326.607)" fill="#afbeb4"/>
            </g>
          </g>
        </g>
        <g id="Group_83" data-name="Group 83" transform="translate(0 12.757)">
          <g id="Group_82" data-name="Group 82">
            <g id="Group_81" data-name="Group 81">
              <path id="Path_56" data-name="Path 56" d="M2796.943,386.433h-18.676V367.757h18.676Z" transform="translate(-2778.267 -367.757)" fill="#2b5752"/>
            </g>
          </g>
        </g>
        <g id="Group_86" data-name="Group 86" transform="translate(0 19.29)">
          <g id="Group_85" data-name="Group 85">
            <g id="Group_84" data-name="Group 84">
              <path id="Path_57" data-name="Path 57" d="M2790.566,422.751h-12.3v-12.3h12.3Z" transform="translate(-2778.267 -410.452)" fill="#cc6750"/>
            </g>
          </g>
        </g>
        <g id="Group_21" data-name="Group 21" transform="translate(44.249 5.888)">
          <g id="Group_11" data-name="Group 11">
            <g id="Group_2" data-name="Group 2" transform="translate(0 0.084)">
              <path id="Path_1" data-name="Path 1" d="M611.575,489.154c0,4.562-3.092,7.352-10.632,7.352a34.367,34.367,0,0,1-7.729-.83V471.961h9.275c5.618,0,8.106,2.677,8.106,6.183a5.5,5.5,0,0,1-3.054,5.166A5.88,5.88,0,0,1,611.575,489.154Zm-9.8-13.385h-3.921v6.259h3.959c2.828,0,4.148-1.207,4.148-3.2C605.958,476.9,604.676,475.731,601.773,475.769Zm5.165,13.422c0-2.187-1.546-3.544-4.788-3.544h-4.3v6.824a14.645,14.645,0,0,0,3.431.3C605.241,492.773,606.938,491.529,606.938,489.191Z" transform="translate(-593.214 -471.961)" fill="#2b5752"/>
            </g>
            <g id="Group_3" data-name="Group 3" transform="translate(20.549 6.531)">
              <path id="Path_2" data-name="Path 2" d="M678.515,509.736a8.872,8.872,0,0,0,4.671-1.086.694.694,0,0,1,1.031.675l-.272,2.749a11.779,11.779,0,0,1-6.334,1.546c-5.58,0-9.426-3.355-9.426-8.71a9.275,9.275,0,0,1,9.652-9.426c4.487,0,6.9,2.375,6.9,5.58,0,3.657-2.752,5.769-7.428,5.806-2.111,0-3.808-.528-4.562-1.433C673.048,507.964,675.046,509.736,678.515,509.736Zm-5.769-5.882c5.618.226,7.578-.867,7.578-2.639,0-1.244-.98-1.961-2.488-1.961A5.093,5.093,0,0,0,672.746,503.854Z" transform="translate(-668.184 -495.484)" fill="#2b5752"/>
            </g>
            <g id="Group_4" data-name="Group 4" transform="translate(39.439 1.403)">
              <path id="Path_3" data-name="Path 3" d="M737.1,493.516l.038-16.175,4.487-.565v5.5h9.408l-.226,3.846h-9.182v6.636c0,2.375,1.358,3.28,3.054,3.28a5.61,5.61,0,0,0,2.691-.59.365.365,0,0,1,.534.353l-.247,3.329a8.111,8.111,0,0,1-4.072.9C739.7,500.039,737.1,497.852,737.1,493.516Z" transform="translate(-737.102 -476.776)" fill="#2b5752"/>
            </g>
            <g id="Group_5" data-name="Group 5" transform="translate(52.183 1.403)">
              <path id="Path_4" data-name="Path 4" d="M783.6,493.516l.038-16.175,4.487-.565v5.5h6.108L794,486.126H788.12v6.636c0,2.375,1.358,3.28,3.054,3.28a5.611,5.611,0,0,0,2.692-.59.365.365,0,0,1,.534.353l-.247,3.329a8.111,8.111,0,0,1-4.072.9C786.2,500.039,783.6,497.852,783.6,493.516Z" transform="translate(-783.596 -476.776)" fill="#2b5752"/>
            </g>
            <g id="Group_6" data-name="Group 6" transform="translate(64.437 6.531)">
              <path id="Path_5" data-name="Path 5" d="M838.634,509.736a8.791,8.791,0,0,0,4.885-1.211.556.556,0,0,1,.844.528l-.3,3.02a11.78,11.78,0,0,1-6.334,1.546c-5.58,0-9.426-3.355-9.426-8.71a9.276,9.276,0,0,1,9.652-9.426c4.487,0,6.9,2.375,6.9,5.58,0,3.657-2.752,5.769-7.428,5.806-2.111,0-3.808-.528-4.562-1.433C833.167,507.964,835.165,509.736,838.634,509.736Zm-5.769-5.882c5.618.226,7.578-.867,7.578-2.639,0-1.244-.98-1.961-2.489-1.961A5.093,5.093,0,0,0,832.865,503.854Z" transform="translate(-828.303 -495.484)" fill="#2b5752"/>
            </g>
            <g id="Group_7" data-name="Group 7" transform="translate(84.043 6.531)">
              <path id="Path_6" data-name="Path 6" d="M910.845,495.559l-.226,4.3a6.891,6.891,0,0,0-1.32-.113c-2.9,0-4.6,2.074-4.6,5.014V513.2h-4.525V500.913l-.339-5.015,4.147-.377.264,3.318a5.6,5.6,0,0,1,5.391-3.355A5.909,5.909,0,0,1,910.845,495.559Z" transform="translate(-899.836 -495.484)" fill="#2b5752"/>
            </g>
            <g id="Group_8" data-name="Group 8" transform="translate(93.571)">
              <path id="Path_7" data-name="Path 7" d="M959.038,478.564h4.6l-6.033,17.344h-3.732l-3.7-11.047-3.884,11.047h-3.77l-7.93-24.252h4.947l5.207,18.068,3.544-11.16h3.921l3.619,11.236Z" transform="translate(-934.595 -471.656)" fill="#2b5752"/>
            </g>
            <g id="Group_9" data-name="Group 9" transform="translate(123.52 6.531)">
              <path id="Path_8" data-name="Path 8" d="M1064.825,509.811l-.3,3.431a9.4,9.4,0,0,1-2.262.3c-1.885,0-3.2-.716-3.771-2.262a8.467,8.467,0,0,1-5.995,2.337c-4.826,0-8.634-3.846-8.634-9.087a8.78,8.78,0,0,1,14.742-6.711l.226-1.961h3.884v12.781c0,.98.49,1.358,1.244,1.358A1.963,1.963,0,0,0,1064.825,509.811Zm-6.56-5.279a4.865,4.865,0,1,0-4.864,4.977A4.765,4.765,0,0,0,1058.265,504.533Z" transform="translate(-1043.862 -495.484)" fill="#2b5752"/>
            </g>
            <g id="Group_10" data-name="Group 10" transform="translate(146.068 6.644)">
              <path id="Path_9" data-name="Path 9" d="M1139.961,496.16h4.525v15.383c0,5.542-3.469,8.9-9.728,8.9a13.5,13.5,0,0,1-6.108-1.282l-.489-3.267a.659.659,0,0,1,.984-.667,9.923,9.923,0,0,0,5.2,1.332c4.072,0,5.618-1.847,5.618-4.751v-1.244a6.037,6.037,0,0,1-5.618,2.9c-3.469,0-6.372-2.073-6.372-6.937V500.5a.943.943,0,0,0-1.018-1.056,2.328,2.328,0,0,0-.829.151l.226-3.394a8.611,8.611,0,0,1,2.564-.3c2.564,0,3.582,1.282,3.582,3.506V505.4c0,2.6,1.244,4.034,3.695,4.034a3.8,3.8,0,0,0,3.771-4.034Z" transform="translate(-1126.124 -495.896)" fill="#2b5752"/>
            </g>
          </g>
          <g id="Group_12" data-name="Group 12" transform="translate(13.567 10.446)">
            <path id="Path_10" data-name="Path 10" d="M654.256,514.221a17.462,17.462,0,0,1-10.742-4.455l-.8,1.415,1.463,2.076s4.813,2.972,13.73,3.963" transform="translate(-642.712 -509.766)" fill="#2b5752"/>
          </g>
          <g id="Group_13" data-name="Group 13" transform="translate(0.104 28.177)">
            <path id="Path_11" data-name="Path 11" d="M598.629,578.921a2.487,2.487,0,0,1-2.465,2.55,2.313,2.313,0,0,1-2.136-1.318l-.064,1.222h-.372v-6.887l.468-.032v3.2a2.34,2.34,0,0,1,2.1-1.265A2.475,2.475,0,0,1,598.629,578.921Zm-.489,0a2.042,2.042,0,1,0-2.03,2.115A2.065,2.065,0,0,0,598.141,578.921Z" transform="translate(-593.592 -574.457)" fill="#2b5752"/>
            <path id="Path_12" data-name="Path 12" d="M617.654,586.159a2.468,2.468,0,0,0,1.679-.574l-.064.521a2.817,2.817,0,0,1-1.647.489,2.323,2.323,0,0,1-2.476-2.37,2.571,2.571,0,0,1,2.582-2.71c.85,0,1.637.457,1.637,1.36,0,1.02-.914,1.7-2.965,1.711a.955.955,0,0,1-.776-.234A1.93,1.93,0,0,0,617.654,586.159Zm-2.03-1.966c2.54.075,3.262-.531,3.262-1.3a1.031,1.031,0,0,0-1.158-.946A2.117,2.117,0,0,0,615.624,584.192Z" transform="translate(-609.238 -579.58)" fill="#2b5752"/>
            <path id="Path_13" data-name="Path 13" d="M635.034,581.32l.01-4.91.457-.053v1.509h2.157l-.042.414H635.5v2.965a1.044,1.044,0,0,0,1.158,1.179,1.924,1.924,0,0,0,1.105-.34l-.053.489a2.154,2.154,0,0,1-1.116.276A1.4,1.4,0,0,1,635.034,581.32Z" transform="translate(-623.675 -575.836)" fill="#2b5752"/>
            <path id="Path_14" data-name="Path 14" d="M648.176,581.32l.01-4.91.457-.053v1.509H650.8l-.042.414h-2.115v2.965a1.044,1.044,0,0,0,1.158,1.179,1.925,1.925,0,0,0,1.105-.34l-.053.489a2.152,2.152,0,0,1-1.116.276A1.4,1.4,0,0,1,648.176,581.32Z" transform="translate(-633.215 -575.836)" fill="#2b5752"/>
            <path id="Path_15" data-name="Path 15" d="M662.2,586.159a2.467,2.467,0,0,0,1.679-.574l-.064.521a2.817,2.817,0,0,1-1.647.489,2.323,2.323,0,0,1-2.476-2.37,2.571,2.571,0,0,1,2.583-2.71c.85,0,1.637.457,1.637,1.36,0,1.02-.914,1.7-2.965,1.711a.955.955,0,0,1-.776-.234A1.93,1.93,0,0,0,662.2,586.159Zm-2.03-1.966c2.54.075,3.263-.531,3.263-1.3a1.032,1.032,0,0,0-1.159-.946A2.117,2.117,0,0,0,660.168,584.192Z" transform="translate(-641.572 -579.58)" fill="#2b5752"/>
            <path id="Path_16" data-name="Path 16" d="M682.308,581.546l-.032.457a1.4,1.4,0,0,0-.383-.043,1.719,1.719,0,0,0-1.668,1.817V586.5h-.468v-3.571l-.064-1.329.468-.085.032,1.286a1.746,1.746,0,0,1,1.753-1.286A1.671,1.671,0,0,1,682.308,581.546Z" transform="translate(-656.094 -579.58)" fill="#2b5752"/>
            <path id="Path_17" data-name="Path 17" d="M704.317,581.806h.478l-1.668,4.889h-.393l-1.445-4.24-1.456,4.24h-.414l-1.658-4.878.489-.032,1.4,4.23,1.414-4.208h.457l1.424,4.23Z" transform="translate(-669.208 -579.776)" fill="#2b5752"/>
            <path id="Path_18" data-name="Path 18" d="M725.672,584.054a2.524,2.524,0,1,1,2.529,2.54A2.511,2.511,0,0,1,725.672,584.054Zm4.559,0a2.036,2.036,0,1,0-2.03,2.1A2.054,2.054,0,0,0,730.231,584.054Z" transform="translate(-689.47 -579.58)" fill="#2b5752"/>
            <path id="Path_19" data-name="Path 19" d="M751.237,581.546l-.032.457a1.4,1.4,0,0,0-.383-.043,1.719,1.719,0,0,0-1.668,1.817V586.5h-.468v-3.571l-.064-1.329.467-.085.032,1.286a1.747,1.747,0,0,1,1.753-1.286A1.674,1.674,0,0,1,751.237,581.546Z" transform="translate(-706.13 -579.58)" fill="#2b5752"/>
            <path id="Path_20" data-name="Path 20" d="M765.074,581.376l-1.658-2.359a4.477,4.477,0,0,1-1.339.244v2.115h-.468v-6.887l.468-.032v4.379c1.934-.085,2.763-1.137,2.763-2.349h.478a2.6,2.6,0,0,1-1.467,2.349l1.786,2.54Z" transform="translate(-715.556 -574.457)" fill="#2b5752"/>
            <path id="Path_21" data-name="Path 21" d="M779.132,598.7a1.957,1.957,0,0,0,.425-.935.414.414,0,0,1-.4-.446.458.458,0,1,1,.914.053,2.308,2.308,0,0,1-.627,1.392Z" transform="translate(-728.276 -590.726)" fill="#2b5752"/>
            <path id="Path_22" data-name="Path 22" d="M800.8,578.921a2.487,2.487,0,0,1-2.466,2.55,2.313,2.313,0,0,1-2.136-1.318l-.064,1.222h-.372v-6.887l.468-.032v3.2a2.339,2.339,0,0,1,2.1-1.265A2.475,2.475,0,0,1,800.8,578.921Zm-.489,0a2.042,2.042,0,1,0-2.03,2.115A2.065,2.065,0,0,0,800.312,578.921Z" transform="translate(-740.35 -574.457)" fill="#2b5752"/>
            <path id="Path_23" data-name="Path 23" d="M819.826,586.159a2.468,2.468,0,0,0,1.679-.574l-.064.521a2.817,2.817,0,0,1-1.647.489,2.323,2.323,0,0,1-2.476-2.37,2.571,2.571,0,0,1,2.582-2.71c.85,0,1.637.457,1.637,1.36,0,1.02-.914,1.7-2.965,1.711a.957.957,0,0,1-.776-.234A1.93,1.93,0,0,0,819.826,586.159Zm-2.03-1.966c2.54.075,3.263-.531,3.263-1.3a1.032,1.032,0,0,0-1.159-.946A2.118,2.118,0,0,0,817.8,584.192Z" transform="translate(-755.996 -579.58)" fill="#2b5752"/>
            <path id="Path_24" data-name="Path 24" d="M837.206,581.32l.011-4.91.457-.053v1.509h2.157l-.042.414h-2.115v2.965a1.044,1.044,0,0,0,1.158,1.179,1.926,1.926,0,0,0,1.105-.34l-.053.489a2.154,2.154,0,0,1-1.116.276A1.4,1.4,0,0,1,837.206,581.32Z" transform="translate(-770.433 -575.836)" fill="#2b5752"/>
            <path id="Path_25" data-name="Path 25" d="M850.348,581.32l.011-4.91.457-.053v1.509h2.157l-.042.414h-2.115v2.965a1.044,1.044,0,0,0,1.158,1.179,1.925,1.925,0,0,0,1.105-.34l-.053.489a2.151,2.151,0,0,1-1.115.276A1.4,1.4,0,0,1,850.348,581.32Z" transform="translate(-779.973 -575.836)" fill="#2b5752"/>
            <path id="Path_26" data-name="Path 26" d="M864.37,586.159a2.468,2.468,0,0,0,1.679-.574l-.064.521a2.817,2.817,0,0,1-1.647.489,2.323,2.323,0,0,1-2.476-2.37,2.571,2.571,0,0,1,2.582-2.71c.85,0,1.637.457,1.637,1.36,0,1.02-.914,1.7-2.965,1.711a.956.956,0,0,1-.776-.234A1.93,1.93,0,0,0,864.37,586.159Zm-2.03-1.966c2.54.075,3.263-.531,3.263-1.3a1.032,1.032,0,0,0-1.159-.946A2.118,2.118,0,0,0,862.34,584.192Z" transform="translate(-788.331 -579.58)" fill="#2b5752"/>
            <path id="Path_27" data-name="Path 27" d="M884.48,581.546l-.032.457a1.4,1.4,0,0,0-.383-.043,1.719,1.719,0,0,0-1.668,1.817V586.5h-.468v-3.571l-.064-1.329.468-.085.032,1.286a1.747,1.747,0,0,1,1.754-1.286A1.668,1.668,0,0,1,884.48,581.546Z" transform="translate(-802.852 -579.58)" fill="#2b5752"/>
            <path id="Path_28" data-name="Path 28" d="M901.4,584.054a2.524,2.524,0,1,1,2.53,2.54A2.511,2.511,0,0,1,901.4,584.054Zm4.559,0a2.036,2.036,0,1,0-2.03,2.1A2.054,2.054,0,0,0,905.963,584.054Z" transform="translate(-817.034 -579.58)" fill="#2b5752"/>
            <path id="Path_29" data-name="Path 29" d="M929.407,584.043a2.478,2.478,0,0,1-2.455,2.55,2.3,2.3,0,0,1-2.1-1.254v3.018h-.457v-5.42l-.075-1.286.468-.075.043,1.244a2.317,2.317,0,0,1,2.126-1.307A2.467,2.467,0,0,1,929.407,584.043Zm-.478,0a2.042,2.042,0,1,0-2.03,2.115A2.065,2.065,0,0,0,928.928,584.043Z" transform="translate(-833.666 -579.58)" fill="#2b5752"/>
            <path id="Path_30" data-name="Path 30" d="M952.513,584.043a2.478,2.478,0,0,1-2.455,2.55,2.3,2.3,0,0,1-2.1-1.254v3.018H947.5v-5.42l-.074-1.286.468-.075.042,1.244a2.317,2.317,0,0,1,2.126-1.307A2.467,2.467,0,0,1,952.513,584.043Zm-.478,0a2.042,2.042,0,1,0-2.03,2.115A2.065,2.065,0,0,0,952.034,584.043Z" transform="translate(-850.439 -579.58)" fill="#2b5752"/>
            <path id="Path_31" data-name="Path 31" d="M969.131,584.054a2.524,2.524,0,1,1,2.529,2.54A2.511,2.511,0,0,1,969.131,584.054Zm4.559,0a2.036,2.036,0,1,0-2.03,2.1A2.054,2.054,0,0,0,973.69,584.054Z" transform="translate(-866.198 -579.58)" fill="#2b5752"/>
            <path id="Path_32" data-name="Path 32" d="M994.7,581.546l-.032.457a1.4,1.4,0,0,0-.383-.043,1.719,1.719,0,0,0-1.668,1.817V586.5h-.468v-3.571l-.064-1.329.468-.085.032,1.286a1.747,1.747,0,0,1,1.754-1.286A1.669,1.669,0,0,1,994.7,581.546Z" transform="translate(-882.858 -579.58)" fill="#2b5752"/>
            <path id="Path_33" data-name="Path 33" d="M1004.759,581.32l.011-4.91.457-.053v1.509h2.157l-.042.414h-2.115v2.965a1.044,1.044,0,0,0,1.158,1.179,1.927,1.927,0,0,0,1.106-.34l-.053.489a2.152,2.152,0,0,1-1.116.276A1.4,1.4,0,0,1,1004.759,581.32Z" transform="translate(-892.06 -575.836)" fill="#2b5752"/>
            <path id="Path_34" data-name="Path 34" d="M1022.666,586.3l-.021.371a1.221,1.221,0,0,1-.361.064.616.616,0,0,1-.7-.691v-.372a2.049,2.049,0,0,1-1.849,1.063,1.868,1.868,0,0,1-1.955-2.115v-1.594l-.032-1.243.5-.074v2.859c0,1.1.574,1.742,1.6,1.732a1.726,1.726,0,0,0,1.722-1.711v-2.837h.478v4.166c0,.287.106.425.33.425A1.026,1.026,0,0,0,1022.666,586.3Z" transform="translate(-901.487 -579.721)" fill="#2b5752"/>
            <path id="Path_35" data-name="Path 35" d="M1044.782,586.148l-.032.382a1.213,1.213,0,0,1-.372.064.622.622,0,0,1-.691-.691v-2.1a1.635,1.635,0,0,0-1.626-1.849,1.748,1.748,0,0,0-1.754,1.774V586.5h-.468v-3.561l-.074-1.286.468-.075.032,1.105a2.008,2.008,0,0,1,1.881-1.169,1.983,1.983,0,0,1,2.019,2.232v2.03c0,.34.149.425.34.425A.718.718,0,0,0,1044.782,586.148Z" transform="translate(-917.472 -579.58)" fill="#2b5752"/>
            <path id="Path_36" data-name="Path 36" d="M1061.706,575.55a.43.43,0,0,1,0-.861.431.431,0,0,1,.436.436A.422.422,0,0,1,1061.706,575.55Zm.839,5.644-.032.371a1.33,1.33,0,0,1-.393.064.614.614,0,0,1-.659-.691v-3.007l-.032-1.243.5-.064v4.187c0,.329.149.436.33.436A.815.815,0,0,0,1062.546,581.193Z" transform="translate(-933.09 -574.625)" fill="#2b5752"/>
            <path id="Path_37" data-name="Path 37" d="M1069.965,581.32l.011-4.91.457-.053v1.509h2.157l-.042.414h-2.115v2.965a1.044,1.044,0,0,0,1.158,1.179,1.926,1.926,0,0,0,1.106-.34l-.053.489a2.152,2.152,0,0,1-1.116.276A1.4,1.4,0,0,1,1069.965,581.32Z" transform="translate(-939.394 -575.836)" fill="#2b5752"/>
            <path id="Path_38" data-name="Path 38" d="M1083.106,575.55a.43.43,0,0,1,0-.861.431.431,0,0,1,.436.436A.422.422,0,0,1,1083.106,575.55Zm.84,5.644-.032.371a1.333,1.333,0,0,1-.393.064.614.614,0,0,1-.659-.691v-3.007l-.032-1.243.5-.064v4.187c0,.329.149.436.329.436A.813.813,0,0,0,1083.945,581.193Z" transform="translate(-948.624 -574.625)" fill="#2b5752"/>
            <path id="Path_39" data-name="Path 39" d="M1092.515,586.159a2.468,2.468,0,0,0,1.679-.574l-.064.521a2.818,2.818,0,0,1-1.647.489,2.323,2.323,0,0,1-2.476-2.37,2.571,2.571,0,0,1,2.582-2.71c.85,0,1.637.457,1.637,1.36,0,1.02-.914,1.7-2.965,1.711a.957.957,0,0,1-.776-.234A1.93,1.93,0,0,0,1092.515,586.159Zm-2.03-1.966c2.54.075,3.263-.531,3.263-1.3a1.031,1.031,0,0,0-1.158-.946A2.117,2.117,0,0,0,1090.485,584.192Z" transform="translate(-953.942 -579.58)" fill="#2b5752"/>
            <path id="Path_40" data-name="Path 40" d="M1108.668,586.169l-.053-.605a2.488,2.488,0,0,0,1.69.616c.861,0,1.392-.351,1.392-.914s-.319-.829-1.392-1.063c-1.158-.255-1.6-.638-1.6-1.382,0-.786.69-1.307,1.732-1.307a2.737,2.737,0,0,1,1.414.351l.064.521a2.506,2.506,0,0,0-1.5-.457c-.776,0-1.254.329-1.254.871,0,.489.319.712,1.328.946,1.254.3,1.669.659,1.669,1.488s-.733,1.36-1.849,1.36A2.978,2.978,0,0,1,1108.668,586.169Z" transform="translate(-967.45 -579.58)" fill="#2b5752"/>
          </g>
          <g id="Group_18" data-name="Group 18" transform="translate(166.965 6.833)">
            <g id="Group_14" data-name="Group 14" transform="translate(0 0)">
              <path id="Path_41" data-name="Path 41" d="M1206.495,496.586c3.79,0,6.269,2.3,6.269,5.748s-2.479,5.766-6.269,5.766h-4.132V496.586Zm-.126,9.61c2.658,0,4.168-1.545,4.168-3.826,0-2.3-1.509-3.88-4.168-3.88h-1.8V506.2Z" transform="translate(-1202.363 -496.586)" fill="#cc6750"/>
            </g>
            <g id="Group_15" data-name="Group 15" transform="translate(11.067 3.072)">
              <path id="Path_42" data-name="Path 42" d="M1247.66,514.583a4.2,4.2,0,0,0,2.784-.88l-.2,1.994a5.613,5.613,0,0,1-3.018.737c-2.659,0-4.491-1.6-4.491-4.15a4.419,4.419,0,0,1,4.6-4.491c2.138,0,3.287,1.131,3.287,2.659,0,1.742-1.311,2.748-3.539,2.766a2.9,2.9,0,0,1-2.174-.683C1245.055,513.739,1246.007,514.583,1247.66,514.583Zm-2.748-2.8c2.677.108,3.611-.413,3.611-1.258,0-.593-.467-.934-1.186-.934A2.426,2.426,0,0,0,1244.912,511.781Z" transform="translate(-1242.738 -507.793)" fill="#cc6750"/>
            </g>
            <g id="Group_16" data-name="Group 16" transform="translate(18.971 3.161)">
              <path id="Path_43" data-name="Path 43" d="M1278.475,508.21h2.3l-3.755,8.3h-1.742l-3.7-8.227,2.335-.162,1.257,3.036a24.316,24.316,0,0,1,1.078,3.072,22.662,22.662,0,0,1,1.024-3.072Z" transform="translate(-1271.577 -508.12)" fill="#cc6750"/>
            </g>
            <g id="Group_17" data-name="Group 17" transform="translate(28.133 3.072)">
              <path id="Path_44" data-name="Path 44" d="M1305.219,515.751l-.215-2.084a5.381,5.381,0,0,0,3.144,1.024c1.078,0,1.635-.252,1.635-.772.018-.521-.377-.755-1.994-1.06-1.868-.377-2.694-1.15-2.694-2.515,0-1.545,1.419-2.551,3.574-2.551a6.2,6.2,0,0,1,2.5.449l.162,1.976a5.382,5.382,0,0,0-2.659-.682c-1.006,0-1.509.252-1.509.736,0,.431.341.611,1.922.934,2.012.431,2.766,1.2,2.766,2.64,0,1.6-1.419,2.587-3.575,2.587A6.431,6.431,0,0,1,1305.219,515.751Z" transform="translate(-1305.004 -507.793)" fill="#cc6750"/>
            </g>
          </g>
        </g>
      </g>
    </g>
  </g>
</svg>
